<?xml version="1.0" encoding="iso-8859-1"?>
<!-- Uploaded to: SVG Repo, www.svgrepo.com, Generator: SVG Repo Mixer Tools -->
<svg version="1.1" id="Layer_1" xmlns="http://www.w3.org/2000/svg" xmlns:xlink="http://www.w3.org/1999/xlink" 
	 viewBox="0 0 512 512" xml:space="preserve">
<path d="M256,0C114.616,0,0,114.616,0,256s114.616,256,256,256s256-114.616,256-256S397.384,0,256,0z"/>
<path style="fill:#5B5C5F;" d="M354.96,178.472h-62.032c-9.872,0-17.944-8.072-17.944-17.944v-16.2
	c0-9.872,8.072-17.944,17.944-17.944h62.032c9.872,0,17.944,8.072,17.944,17.944v16.2C372.904,170.4,364.832,178.472,354.96,178.472
	z"/>
<path style="fill:#FFFFFF;" d="M398.096,385.704H113.984c-9.872,0-17.944-8.072-17.944-17.944V170.376
	c0-9.872,8.072-17.944,17.944-17.944h284.112c9.872,0,17.944,8.072,17.944,17.944V367.76
	C416.04,377.624,407.968,385.704,398.096,385.704z"/>
<circle style="fill:#DBDFE4;" cx="265.04" cy="269.064" r="52.184"/>
<circle style="fill:#333333;" cx="265.04" cy="269.064" r="71.368"/>
<circle cx="265.04" cy="269.064" r="56.32"/>
<circle style="fill:#E21B1B;" cx="265.04" cy="269.064" r="20.848"/>
<circle style="fill:#FFFFFF;" cx="232.72" cy="235.464" r="9.8"/>
<rect x="123.696" y="178.472" width="43.248" height="22.44"/>
<rect x="156.248" y="178.472" style="fill:#E21B1B;" width="12.592" height="22.44"/>
</svg>